# xmcd
#
# Track frame offsets:
#	150
#	17156
#	33938
#	50050
#	65220
#	90873
#	109140
#	129160
#	146365
#	163246
#	181158
#	196985
#	211745
#	232394
#	247107
#	263128
#	279772
#	296238
#	314365
#
# Disc length: 4468 seconds
#
# Revision: 0
# Processed by: cddbd v1.5.2PL0 Copyright (c) Steve Scherf et al.
# Submitted via: EasyCDDAExtractor 16.0.9.1
#
DISCID=1a117213
DTITLE=Hott Urban Volume 9 CAN
DYEAR=2016
DGENRE=blues
TTITLE0=Kid Ink ft. Fetty Wap - Promise
TTITLE1=R. Kelly - Wake Up Everybody
TTITLE2=Young Thug - Best Friend
TTITLE3=Fetty Wap ft. Monty - Jugg
TTITLE4=Babyface - Exceptional
TTITLE5=Mack Wilds - Love in the 90z
TTITLE6=A$AP Ferg ft. Future - New Level
TTITLE7=Kranium ft. Ty Dolla $ign - Nobody Has to Know
TTITLE8=O.T. Genasis - Cut It
TTITLE9=iLoveMemphis - Lean and Dabb
TTITLE10=G-Eazy ft. Starrah - Order More
TTITLE11=Bryson Tiller - Exchange
TTITLE12=French Montana ft. Chris Brown and Migos - Moses
TTITLE13=Fantasia - No Time For It
TTITLE14=Dej Loaf ft. Future - Hey There
TTITLE15=B Smyth ft. Young Thug - Creep
TTITLE16=Migos - Look At My Dab
TTITLE17=Kevin Gates - 2 Phones
TTITLE18=Puff Daddy and The Family ft. Ty Dolla $ign and Gizzle - You Could Be M
TTITLE18=y Lover
EXTD=
EXTT0=
EXTT1=
EXTT2=
EXTT3=
EXTT4=
EXTT5=
EXTT6=
EXTT7=
EXTT8=
EXTT9=
EXTT10=
EXTT11=
EXTT12=
EXTT13=
EXTT14=
EXTT15=
EXTT16=
EXTT17=
EXTT18=
PLAYORDER=
